<svg width="70" height="14" xmlns="http://www.w3.org/2000/svg"><g fill="none" fill-rule="evenodd"><path fill="#FFF" d="M0 0h70v14H0z"/><path d="M14.829 14c.25-.091.504-.185.762-.281l1.237-.463C23.548 10.743 27.753 9.8 35 9.8c7.19 0 10.753.855 17.24 3.45.669.268 1.309.517 1.925.75h4.358c-1.758-.511-3.598-1.184-5.763-2.05C46.122 9.295 42.394 8.4 35 8.4c-7.438 0-11.799.978-18.662 3.544l-1.237.463c-1.732.647-3.262 1.173-4.706 1.593h4.434zm0-14C9.28 2.024 5.654 2.8 0 2.8V1.4C4.02 1.4 6.966.998 10.395 0h4.434zm39.336 0C59.667 2.077 63.352 2.8 70 2.8V1.4c-4.79 0-7.97-.38-11.477-1.4h-4.358zM0 9.8c5.908 0 9.603-.847 15.59-3.081l1.238-.463C23.548 3.743 27.753 2.8 35 2.8c7.19 0 10.753.855 17.24 3.45C58.878 8.905 62.606 9.8 70 9.8V8.4c-7.19 0-10.753-.855-17.24-3.45C46.122 2.295 42.394 1.4 35 1.4c-7.438 0-11.799.978-18.662 3.544l-1.237.463C9.256 7.587 5.714 8.4 0 8.4v1.4z" fill="#FAFAFA" fill-rule="nonzero"/></g></svg>